<svg xmlns="http://www.w3.org/2000/svg" viewBox="0 0 600 600" width="600" height="600" role="img">
<rect width="600" height="600" fill="#1a2ef0"/>
<path d="M60 88.41L68 89.06L76 89.54L84 89.85L92 89.99L100 89.95L108 89.74L116 89.35L124 88.8L132 88.08L140 87.23L148 86.25L156 85.16L164 83.97L172 82.71L180 81.41L188 80.08L196 78.75L204 77.44L212 76.18L220 74.99L228 73.88L236 72.88L244 72.01L252 71.28L260 70.71L268 70.3L276 70.06L284 70L292 70.12L300 70.41L308 70.87L316 71.5L324 72.27L332 73.18L340 74.22L348 75.35L356 76.57L364 77.85L372 79.17L380 80.5L388 81.82L396 83.12L404 84.35L412 85.51L420 86.57L428 87.51L436 88.32L444 88.99L452 89.49L460 89.83L468 89.99L476 89.97L484 89.77L492 89.41L500 88.87L508 88.18L516 87.34L524 86.38L532 85.3L540 84.12" fill="none" stroke="#eef0ff" stroke-width="9" stroke-linecap="round"/><path d="M60 124.06L68 124.2L76 124.12L84 123.82L92 123.32L100 122.61L108 121.72L116 120.65L124 119.43L132 118.08L140 116.62L148 115.08L156 113.48L164 111.86L172 110.24L180 108.65L188 107.12L196 105.67L204 104.34L212 103.15L220 102.11L228 101.25L236 100.58L244 100.11L252 99.85L260 99.81L268 99.98L276 100.37L284 100.97L292 101.76L300 102.73L308 103.87L316 105.15L324 106.55L332 108.05L340 109.62L348 111.23L356 112.86L364 114.47L372 116.03L380 117.53L388 118.92L396 120.2L404 121.33L412 122.29L420 123.07L428 123.65L436 124.03L444 124.19L452 124.14L460 123.87L468 123.39L476 122.71L484 121.84L492 120.79L500 119.59L508 118.25L516 116.8L524 115.27L532 113.68L540 112.06" fill="none" stroke="#eef0ff" stroke-width="3.5" stroke-linecap="round"/><path d="M60 157.88L68 157.25L76 156.38L84 155.29L92 154.01L100 152.54L108 150.92L116 149.18L124 147.35L132 145.46L140 143.54L148 141.63L156 139.77L164 137.97L172 136.29L180 134.74L188 133.36L196 132.16L204 131.18L212 130.42L220 129.9L228 129.64L236 129.63L244 129.87L252 130.37L260 131.1L268 132.07L276 133.25L284 134.62L292 136.15L300 137.83L308 139.61L316 141.47L324 143.38L332 145.3L340 147.19L348 149.03L356 150.78L364 152.41L372 153.89L380 155.19L388 156.3L396 157.18L404 157.84L412 158.24L420 158.4L428 158.3L436 157.94L444 157.34L452 156.5L460 155.44L468 154.18L476 152.73L484 151.13L492 149.41L500 147.58L508 145.7L516 143.78L524 141.87L532 139.99L540 138.19" fill="none" stroke="#eef0ff" stroke-width="3.5" stroke-linecap="round"/><path d="M60 188.81L68 187.29L76 185.58L84 183.69L92 181.66L100 179.54L108 177.35L116 175.14L124 172.95L132 170.8L140 168.75L148 166.83L156 165.07L164 163.51L172 162.17L180 161.07L188 160.24L196 159.69L204 159.42L212 159.45L220 159.78L228 160.39L236 161.28L244 162.43L252 163.83L260 165.44L268 167.23L276 169.18L284 171.26L292 173.41L300 175.62L308 177.82L316 180L324 182.11L332 184.11L340 185.96L348 187.64L356 189.11L364 190.35L372 191.33L380 192.04L388 192.47L396 192.6L404 192.44L412 191.99L420 191.25L428 190.24L436 188.98L444 187.49L452 185.8L460 183.93L468 181.92L476 179.81L484 177.63L492 175.42L500 173.22L508 171.06L516 169L524 167.06L532 165.28L540 163.69" fill="none" stroke="#eef0ff" stroke-width="3.5" stroke-linecap="round"/><path d="M60 216.37L68 214.06L76 211.64L84 209.16L92 206.65L100 204.17L108 201.76L116 199.46L124 197.31L132 195.35L140 193.61L148 192.13L156 190.93L164 190.03L172 189.46L180 189.21L188 189.3L196 189.71L204 190.46L212 191.51L220 192.86L228 194.47L236 196.33L244 198.39L252 200.62L260 202.99L268 205.44L276 207.94L284 210.44L292 212.9L300 215.27L308 217.51L316 219.58L324 221.44L332 223.07L340 224.43L348 225.5L356 226.26L364 226.69L372 226.79L380 226.56L388 226L396 225.12L404 223.93L412 222.47L420 220.74L428 218.79L436 216.65L444 214.35L452 211.95L460 209.47L468 206.96L476 204.48L484 202.05L492 199.73L500 197.56L508 195.58L516 193.81L524 192.3L532 191.06L540 190.13" fill="none" stroke="#eef0ff" stroke-width="9" stroke-linecap="round"/><path d="M60 240.87L68 238.08L76 235.31L84 232.63L92 230.08L100 227.71L108 225.56L116 223.66L124 222.05L132 220.76L140 219.81L148 219.22L156 219L164 219.15L172 219.68L180 220.56L188 221.79L196 223.34L204 225.18L212 227.29L220 229.63L228 232.15L236 234.81L244 237.56L252 240.35L260 243.14L268 245.87L276 248.5L284 250.98L292 253.26L300 255.31L308 257.08L316 258.56L324 259.7L332 260.49L340 260.92L348 260.98L356 260.66L364 259.98L372 258.95L380 257.57L388 255.89L396 253.92L404 251.71L412 249.29L420 246.7L428 244L436 241.22L444 238.42L452 235.65L460 232.96L468 230.39L476 227.99L484 225.81L492 223.88L500 222.23L508 220.9L516 219.91L524 219.28L532 219.01L540 219.11" fill="none" stroke="#eef0ff" stroke-width="3.5" stroke-linecap="round"/><path d="M60 263.43L68 260.64L76 258.05L84 255.71L92 253.66L100 251.93L108 250.56L116 249.57L124 248.98L132 248.8L140 249.03L148 249.67L156 250.7L164 252.11L172 253.88L180 255.96L188 258.33L196 260.95L204 263.76L212 266.71L220 269.76L228 272.85L236 275.93L244 278.93L252 281.81L260 284.52L268 287.01L276 289.23L284 291.14L292 292.71L300 293.92L308 294.73L316 295.15L324 295.15L332 294.74L340 293.93L348 292.73L356 291.16L364 289.25L372 287.03L380 284.55L388 281.84L396 278.96L404 275.96L412 272.88L420 269.79L428 266.74L436 263.79L444 260.97L452 258.36L460 255.99L468 253.9L476 252.13L484 250.71L492 249.68L500 249.03L508 248.8L516 248.98L524 249.57L532 250.55L540 251.92" fill="none" stroke="#eef0ff" stroke-width="3.5" stroke-linecap="round"/><path d="M60 285.81L68 283.61L76 281.78L84 280.34L92 279.32L100 278.74L108 278.61L116 278.93L124 279.69L132 280.89L140 282.49L148 284.48L156 286.81L164 289.45L172 292.35L180 295.45L188 298.71L196 302.06L204 305.44L212 308.8L220 312.07L228 315.2L236 318.13L244 320.81L252 323.2L260 325.24L268 326.9L276 328.16L284 328.99L292 329.37L300 329.31L308 328.79L316 327.84L324 326.46L332 324.68L340 322.54L348 320.07L356 317.31L364 314.31L372 311.14L380 307.83L388 304.46L396 301.08L404 297.75L412 294.53L420 291.48L428 288.66L436 286.1L444 283.87L452 281.99L460 280.5L468 279.43L476 278.79L484 278.6L492 278.86L500 279.57L508 280.72L516 282.27L524 284.21L532 286.51L540 289.11" fill="none" stroke="#eef0ff" stroke-width="3.5" stroke-linecap="round"/><path d="M60 310.1L68 309.06L76 308.5L84 308.43L92 308.85L100 309.75L108 311.12L116 312.93L124 315.15L132 317.73L140 320.65L148 323.83L156 327.23L164 330.79L172 334.44L180 338.12L188 341.76L196 345.29L204 348.67L212 351.81L220 354.68L228 357.22L236 359.37L244 361.12L252 362.42L260 363.24L268 363.59L276 363.45L284 362.81L292 361.71L300 360.14L308 358.15L316 355.76L324 353.03L332 349.99L340 346.7L348 343.22L356 339.62L364 335.95L372 332.28L380 328.68L388 325.2L396 321.92L404 318.89L412 316.16L420 313.79L428 311.81L436 310.26L444 309.16L452 308.54L460 308.41L468 308.77L476 309.61L484 310.93L492 312.68L500 314.85L508 317.4L516 320.27L524 323.43L532 326.8L540 330.34" fill="none" stroke="#eef0ff" stroke-width="9" stroke-linecap="round"/><path d="M60 338.27L68 338.8L76 339.85L84 341.4L92 343.42L100 345.88L108 348.73L116 351.92L124 355.4L132 359.1L140 362.96L148 366.91L156 370.88L164 374.8L172 378.59L180 382.2L188 385.56L196 388.6L204 391.28L212 393.55L220 395.36L228 396.69L236 397.51L244 397.8L252 397.56L260 396.8L268 395.53L276 393.77L284 391.55L292 388.92L300 385.91L308 382.59L316 379L324 375.22L332 371.31L340 367.35L348 363.39L356 359.52L364 355.8L372 352.29L380 349.06L388 346.17L396 343.67L404 341.6L412 340L420 338.89L428 338.3L436 338.24L444 338.71L452 339.69L460 341.18L468 343.15L476 345.55L484 348.36L492 351.51L500 354.96L508 358.63L516 362.48L524 366.42L532 370.39L540 374.32" fill="none" stroke="#eef0ff" stroke-width="3.5" stroke-linecap="round"/><path d="M60 371.73L68 373.97L76 376.68L84 379.8L92 383.28L100 387.05L108 391.06L116 395.22L124 399.47L132 403.73L140 407.92L148 411.97L156 415.81L164 419.37L172 422.58L180 425.4L188 427.76L196 429.63L204 430.97L212 431.77L220 432L228 431.66L236 430.76L244 429.31L252 427.35L260 424.9L268 422L276 418.72L284 415.1L292 411.22L300 407.13L308 402.92L316 398.66L324 394.42L332 390.28L340 386.32L348 382.59L356 379.18L364 376.13L372 373.51L380 371.36L388 369.72L396 368.61L404 368.06L412 368.08L420 368.67L428 369.81L436 371.49L444 373.67L452 376.32L460 379.39L468 382.83L476 386.57L484 390.55L492 394.7L500 398.94L508 403.2L516 407.41L524 411.48L532 415.35L540 418.95" fill="none" stroke="#eef0ff" stroke-width="3.5" stroke-linecap="round"/><path d="M60 410.95L68 414.72L76 418.79L84 423.1L92 427.57L100 432.12L108 436.66L116 441.13L124 445.43L132 449.49L140 453.24L148 456.62L156 459.55L164 462L172 463.92L180 465.27L188 466.03L196 466.18L204 465.73L212 464.68L220 463.05L228 460.87L236 458.17L244 455.01L252 451.45L260 447.53L268 443.34L276 438.95L284 434.44L292 429.88L300 425.37L308 420.96L316 416.76L324 412.82L332 409.23L340 406.04L348 403.31L356 401.09L364 399.42L372 398.33L380 397.83L388 397.94L396 398.66L404 399.97L412 401.84L420 404.25L428 407.16L436 410.5L444 414.23L452 418.27L460 422.56L468 427.01L476 431.55L484 436.1L492 440.58L500 444.91L508 449L516 452.8L524 456.22L532 459.22L540 461.73" fill="none" stroke="#eef0ff" stroke-width="3.5" stroke-linecap="round"/><path d="M60 455.24L68 460.01L76 464.85L84 469.68L92 474.41L100 478.96L108 483.24L116 487.17L124 490.7L132 493.75L140 496.28L148 498.23L156 499.57L164 500.28L172 500.35L180 499.77L188 498.56L196 496.73L204 494.33L212 491.38L220 487.95L228 484.09L236 479.88L244 475.38L252 470.69L260 465.87L268 461.02L276 456.23L284 451.57L292 447.13L300 442.99L308 439.23L316 435.9L324 433.07L332 430.8L340 429.11L348 428.04L356 427.61L364 427.82L372 428.68L380 430.17L388 432.25L396 434.9L404 438.07L412 441.69L420 445.71L428 450.06L436 454.65L444 459.41L452 464.25L460 469.09L468 473.84L476 478.41L484 482.72L492 486.71L500 490.29L508 493.4L516 495.99L524 498.02L532 499.44L540 500.23" fill="none" stroke="#eef0ff" stroke-width="9" stroke-linecap="round"/><path d="M60 502.79L68 507.78L76 512.56L84 517.05L92 521.17L100 524.83L108 527.99L116 530.58L124 532.55L132 533.88L140 534.53L148 534.5L156 533.78L164 532.4L172 530.37L180 527.73L188 524.52L196 520.81L204 516.66L212 512.14L220 507.34L228 502.33L236 497.21L244 492.07L252 487L260 482.09L268 477.43L276 473.1L284 469.17L292 465.72L300 462.8L308 460.48L316 458.79L324 457.75L332 457.4L340 457.73L348 458.74L356 460.41L364 462.72L372 465.61L380 469.05L388 472.96L396 477.28L404 481.93L412 486.84L420 491.9L428 497.04L436 502.16L444 507.17L452 511.98L460 516.51L468 520.68L476 524.4L484 527.63L492 530.29L500 532.34L508 533.75L516 534.49L524 534.54L532 533.91L540 532.61" fill="none" stroke="#eef0ff" stroke-width="3.5" stroke-linecap="round"/>
</svg>
