<svg xmlns="http://www.w3.org/2000/svg" viewBox="0 0 600 600" width="600" height="600" role="img" aria-label="Abstract mark: five stacked planes seen at an angle with the middle one filled red, above a band of diagonal hatching">
<rect x="0" y="0" width="600" height="600" fill="#f3f0e9"/>
<path d="M70 120 L400 64 L400 146 L70 202 Z" fill="none" stroke="#16150f" stroke-width="2"/>
<path d="M104 202 L434 146 L434 228 L104 284 Z" fill="none" stroke="#16150f" stroke-width="2"/>
<path d="M138 284 L468 228 L468 310 L138 366 Z" fill="#d93a1e" stroke="#16150f" stroke-width="2"/>
<path d="M172 366 L502 310 L502 392 L172 448 Z" fill="none" stroke="#16150f" stroke-width="2"/>
<path d="M206 448 L536 392 L536 474 L206 530 Z" fill="none" stroke="#16150f" stroke-width="2"/>
<line x1="40" y1="560" x2="80" y2="520" stroke="#16150f" stroke-width="1.5"/>
<line x1="64" y1="560" x2="104" y2="520" stroke="#16150f" stroke-width="1.5"/>
<line x1="88" y1="560" x2="128" y2="520" stroke="#16150f" stroke-width="1.5"/>
<line x1="112" y1="560" x2="152" y2="520" stroke="#16150f" stroke-width="1.5"/>
<line x1="136" y1="560" x2="176" y2="520" stroke="#16150f" stroke-width="1.5"/>
<line x1="160" y1="560" x2="200" y2="520" stroke="#16150f" stroke-width="1.5"/>
<line x1="184" y1="560" x2="224" y2="520" stroke="#16150f" stroke-width="1.5"/>
<line x1="208" y1="560" x2="248" y2="520" stroke="#16150f" stroke-width="1.5"/>
<line x1="232" y1="560" x2="272" y2="520" stroke="#16150f" stroke-width="1.5"/>
<line x1="256" y1="560" x2="296" y2="520" stroke="#16150f" stroke-width="1.5"/>
<line x1="280" y1="560" x2="320" y2="520" stroke="#16150f" stroke-width="1.5"/>
<line x1="304" y1="560" x2="344" y2="520" stroke="#16150f" stroke-width="1.5"/>
<line x1="328" y1="560" x2="368" y2="520" stroke="#16150f" stroke-width="1.5"/>
<line x1="352" y1="560" x2="392" y2="520" stroke="#16150f" stroke-width="1.5"/>
<line x1="376" y1="560" x2="416" y2="520" stroke="#16150f" stroke-width="1.5"/>
<line x1="400" y1="560" x2="440" y2="520" stroke="#16150f" stroke-width="1.5"/>
<line x1="424" y1="560" x2="464" y2="520" stroke="#16150f" stroke-width="1.5"/>
<line x1="448" y1="560" x2="488" y2="520" stroke="#16150f" stroke-width="1.5"/>
<line x1="472" y1="560" x2="512" y2="520" stroke="#16150f" stroke-width="1.5"/>
<line x1="496" y1="560" x2="536" y2="520" stroke="#16150f" stroke-width="1.5"/>
<line x1="520" y1="560" x2="560" y2="520" stroke="#16150f" stroke-width="1.5"/>
<line x1="544" y1="560" x2="584" y2="520" stroke="#16150f" stroke-width="1.5"/>
<rect x="0" y="0" width="600" height="26" fill="#16150f"/>
</svg>
